<?xml version="1.0" encoding="UTF-8" standalone="no"?>
<!-- Created with Inkscape (http://www.inkscape.org/) -->

<svg
   xmlns:dc="http://purl.org/dc/elements/1.1/"
   xmlns:cc="http://creativecommons.org/ns#"
   xmlns:rdf="http://www.w3.org/1999/02/22-rdf-syntax-ns#"
   xmlns:svg="http://www.w3.org/2000/svg"
   xmlns="http://www.w3.org/2000/svg"
   xmlns:sodipodi="http://sodipodi.sourceforge.net/DTD/sodipodi-0.dtd"
   xmlns:inkscape="http://www.inkscape.org/namespaces/inkscape"
   width="53.684769"
   height="77.089691"
   viewBox="0 0 53.684769 77.089691"
   version="1.1"
   id="svg8"
   inkscape:version="0.92.4 (f8dce91, 2019-08-02)"
   sodipodi:docname="nb-logo-white.svg">
  <defs
     id="defs2" />
  <sodipodi:namedview
     id="base"
     pagecolor="#e60000"
     bordercolor="#666666"
     borderopacity="1.0"
     inkscape:pageopacity="0.0"
     inkscape:pageshadow="2"
     inkscape:zoom="8"
     inkscape:cx="3.135765"
     inkscape:cy="29.322271"
     inkscape:document-units="mm"
     inkscape:current-layer="g3849"
     showgrid="false"
     showborder="true"
     inkscape:window-width="2918"
     inkscape:window-height="1726"
     inkscape:window-x="2495"
     inkscape:window-y="258"
     inkscape:window-maximized="0"
     units="mm"
     width="840mm"
     scale-x="1"
     fit-margin-top="0"
     fit-margin-left="0"
     fit-margin-right="0"
     fit-margin-bottom="0" />
  <metadata
     id="metadata5">
    <rdf:RDF>
      <cc:Work
         rdf:about="">
        <dc:format>image/svg+xml</dc:format>
        <dc:type
           rdf:resource="http://purl.org/dc/dcmitype/StillImage" />
        <dc:title></dc:title>
      </cc:Work>
    </rdf:RDF>
  </metadata>
  <g
     inkscape:label="Layer 1"
     inkscape:groupmode="layer"
     id="layer1"
     transform="translate(-0.07665759,891.94824)">
    <g
       transform="matrix(0.35277777,0,0,-0.35277777,-42.920359,237.62091)"
       inkscape:label="NB-symbol+nett-svart"
       id="g3721">
      <g
         id="g3849">
        <g
           id="g3731"
           transform="matrix(6.5657908,0,0,6.5657908,131.84818,3131.7138)"
           style="fill:#e60000">
          <path
             d="M 0,0 C 0.838,0 1.517,0.68 1.517,1.518 1.517,2.355 0.838,3.035 0,3.035 -0.838,3.035 -1.518,2.355 -1.518,1.518 -1.518,0.68 -0.838,0 0,0"
             style="fill:#e60000;fill-opacity:1;fill-rule:nonzero;stroke:none"
             id="path3733"
             inkscape:connector-curvature="0" />
        </g>
        <g
           id="g3735"
           transform="matrix(6.5657908,0,0,6.5657908,231.49259,3131.7138)"
           style="fill:#e60000">
          <path
             d="m 0,0 c -0.838,0 -1.518,0.68 -1.518,1.518 0,0.837 0.68,1.517 1.518,1.517 0.838,0 1.517,-0.68 1.517,-1.517 C 1.517,0.68 0.838,0 0,0 m 0,-7.527 c -0.838,0 -1.518,0.679 -1.518,1.517 0,0.838 0.68,1.518 1.518,1.518 0.838,0 1.517,-0.68 1.517,-1.518 0,-0.838 -0.679,-1.517 -1.517,-1.517 m 0,-7.481 c -0.838,0 -1.518,0.68 -1.518,1.518 0,0.838 0.68,1.517 1.518,1.517 0.838,0 1.517,-0.679 1.517,-1.517 0,-0.838 -0.679,-1.518 -1.517,-1.518 M -7.556,0 c -0.838,0 -1.517,0.68 -1.517,1.518 0,0.837 0.679,1.517 1.517,1.517 0.838,0 1.517,-0.68 1.517,-1.517 C -6.039,0.68 -6.718,0 -7.556,0 m -3.778,-17.403 H 6.483 v 28.097 h -17.817 z"
             style="fill:#e60000;fill-opacity:1;fill-rule:nonzero;stroke:none"
             id="path3737"
             inkscape:connector-curvature="0" />
        </g>
        <g
           id="g3739"
           transform="matrix(6.5657908,0,0,6.5657908,232.22008,2983.4064)"
           style="fill:#e60000">
          <path
             d="M 0,0 C 0.838,0 1.517,0.68 1.517,1.518 1.517,2.354 0.838,3.034 0,3.034 -0.838,3.034 -1.518,2.354 -1.518,1.518 -1.518,0.68 -0.838,0 0,0"
             style="fill:#e60000;fill-opacity:1;fill-rule:nonzero;stroke:none"
             id="path3741"
             inkscape:connector-curvature="0" />
        </g>
      </g>
    </g>
  </g>
</svg>
